<svg width="47" height="47" viewBox="0 0 47 47" fill="none" xmlns="http://www.w3.org/2000/svg">
<path d="M8.66281 4.38869C7.47342 3.27994 8.17899 1.29427 9.79172 1.16323L28.832 0.0645623C31.5232 -0.157188 33.4484 0.12504 35.4341 1.97968L43.7195 8.71282C44.2033 9.15632 44.2336 10.4868 43.276 10.4868L18.8432 12.9261C17.9158 13.0168 17.0087 12.7043 16.3434 12.0693L8.66281 4.38869Z" fill="#0E2756"/>
<path d="M2.25812 37.0163C1.35097 36.1091 1.8751 34.2142 4.21356 33.9823L26.1467 31.7749C27.7997 31.6036 28.7573 32.5511 29.4225 33.2163L36.6596 40.3325C37.6676 41.3404 37.5567 43.4672 35.813 43.8301L16.8634 46.5717C15.3011 46.7229 13.7186 46.2794 12.5393 45.342L5.90692 39.9797L2.25812 37.0163Z" fill="#0E2756"/>
<path d="M3.29749 7.38214C3.51924 5.34607 6.02905 4.95296 6.98661 5.90044L14.9999 13.8532C15.5139 14.3773 15.8264 14.841 15.6349 16.0002L13.3065 30.2627C13.2863 30.424 13.1654 30.555 13.0243 30.555L3.79139 31.5025C2.04763 31.6436 -0.179954 30.2426 0.0115578 28.3375L3.29749 7.38214Z" fill="#0E2756"/>
<path d="M17.9706 18.5504C18.3133 16.3934 19.0492 15.4661 21.1356 15.2645L30.2576 14.2969L28.3324 26.3923C27.8486 28.8114 26.5685 29.1743 24.734 29.3759L16.0757 30.2427L17.9706 18.5504Z" fill="#0E2756"/>
<path d="M42.3371 38.5889C42.1456 39.869 40.2405 40.7156 39.2729 39.7581L31.0379 31.5735C30.4835 31.0695 30.1912 30.495 30.2819 29.7491L32.8321 14.3173C32.8522 14.1661 32.9833 14.0351 33.1244 14.0351L42.9923 13.017C44.8267 12.8658 46.2379 14.5995 45.996 16.4239L42.3371 38.5889Z" fill="#0E2756"/>
</svg>
